# xmcd CD database file
#
# Track frame offsets:
#	150
#	22130
#	49200
#	67888
#	91333
#	106370
#	122625
#	146070
#	165420
#	181288
#
# Disc length: 2739 seconds
#
# Revision: 2
# Processed by: cddbd v1.5.1PL2 Copyright (c) Steve Scherf et al.
# Submitted via: CDex 1.50
#
DISCID=850ab10a
DTITLE=Leon Patillo - Love Around The World
DYEAR=1985
DGENRE=CCM
TTITLE0=Love Around The World
TTITLE1=Up And Over
TTITLE2=One Thing Leads To Another
TTITLE3=Magic Man
TTITLE4=Fire
TTITLE5=Friends In High Places
TTITLE6=I'll Be With You
TTITLE7=Treat Her Like A Lady
TTITLE8=Safe Delivery
TTITLE9=The Lord's Prayer
EXTD=YEAR: 1985
EXTT0=
EXTT1=
EXTT2=
EXTT3=
EXTT4=
EXTT5=
EXTT6=
EXTT7=
EXTT8=
EXTT9=
PLAYORDER=
